HIERARCHY
ROOT joint_Root
{
	OFFSET 0.0 0.0 0.0
	CHANNELS 6 Xposition Yposition Zposition Zrotation Xrotation Yrotation 
	JOINT Hips
	{
		OFFSET 4.5925 91.4895 -427.239
		CHANNELS 6 Xposition Yposition Zposition Zrotation Xrotation Yrotation 
		JOINT Spine
		{
			OFFSET 15.7357 0.0 0.0
			CHANNELS 6 Xposition Yposition Zposition Zrotation Xrotation Yrotation 
			JOINT Chest
			{
				OFFSET 8.98455 -0.406207 0.0
				CHANNELS 6 Xposition Yposition Zposition Zrotation Xrotation Yrotation 
				JOINT Neck
				{
					OFFSET 16.3773 0.0 0.0
					CHANNELS 6 Xposition Yposition Zposition Zrotation Xrotation Yrotation 
					JOINT Head
					{
						OFFSET 6.45672 0.0 0.0
						CHANNELS 6 Xposition Yposition Zposition Zrotation Xrotation Yrotation 
						End Site
						{
							OFFSET 0.0 0.0 0.0
						}
					}
				}
				JOINT Shoulder_L
				{
					OFFSET 12.9942 -0.242716 4.98039
					CHANNELS 6 Xposition Yposition Zposition Zrotation Xrotation Yrotation 
					JOINT UpperArm_L
					{
						OFFSET 5.34809 0.0 0.0
						CHANNELS 6 Xposition Yposition Zposition Zrotation Xrotation Yrotation 
						JOINT LowerArm_L
						{
							OFFSET 24.3286 1.87007e-05 0.0
							CHANNELS 6 Xposition Yposition Zposition Zrotation Xrotation Yrotation 
							JOINT Hand_L
							{
								OFFSET 22.2916 0.0 0.0
								CHANNELS 6 Xposition Yposition Zposition Zrotation Xrotation Yrotation 
								End Site
								{
									OFFSET 0.0 0.0 0.0
								}
							}
						}
					}
				}
				JOINT Shoulder_R
				{
					OFFSET 12.9945 -0.242716 -4.98039
					CHANNELS 6 Xposition Yposition Zposition Zrotation Xrotation Yrotation 
					JOINT UpperArm_R
					{
						OFFSET -5.34813 0.0 0.0
						CHANNELS 6 Xposition Yposition Zposition Zrotation Xrotation Yrotation 
						JOINT LowerArm_R
						{
							OFFSET -24.3289 0.000322201 0.0
							CHANNELS 6 Xposition Yposition Zposition Zrotation Xrotation Yrotation 
							JOINT Hand_R
							{
								OFFSET -22.2915 -0.000108084 0.0
								CHANNELS 6 Xposition Yposition Zposition Zrotation Xrotation Yrotation 
								End Site
								{
									OFFSET 0.0 0.0 0.0
								}
							}
						}
					}
				}
			}
		}
		JOINT UpperLeg_L
		{
			OFFSET -2.19248 -6.46944 0.0
			CHANNELS 6 Xposition Yposition Zposition Zrotation Xrotation Yrotation 
			JOINT LowerLeg_L
			{
				OFFSET 39.0811 0.0 -1.23785e-05
				CHANNELS 6 Xposition Yposition Zposition Zrotation Xrotation Yrotation 
				JOINT Foot_L
				{
					OFFSET 40.9854 0.0 -1.26872e-05
					CHANNELS 6 Xposition Yposition Zposition Zrotation Xrotation Yrotation 
					JOINT Toes_L
					{
						OFFSET 11.7543 0.0 0.0
						CHANNELS 6 Xposition Yposition Zposition Zrotation Xrotation Yrotation 
						End Site
						{
							OFFSET 0.0 0.0 0.0
						}
					}
				}
			}
		}
		JOINT UpperLeg_R
		{
			OFFSET -2.19251 6.46944 0.0
			CHANNELS 6 Xposition Yposition Zposition Zrotation Xrotation Yrotation 
			JOINT LowerLeg_R
			{
				OFFSET -39.0811 -0.00228153 -0.0401928
				CHANNELS 6 Xposition Yposition Zposition Zrotation Xrotation Yrotation 
				JOINT Foot_R
				{
					OFFSET -40.9854 0.0 0.0
					CHANNELS 6 Xposition Yposition Zposition Zrotation Xrotation Yrotation 
					JOINT Toes_R
					{
						OFFSET -11.7543 0.0 0.0
						CHANNELS 6 Xposition Yposition Zposition Zrotation Xrotation Yrotation 
						End Site
						{
							OFFSET 0.0 0.0 0.0
						}
					}
				}
			}
		}
	}
}
MOTION
Frames:	4
Frame Time:	0.0333333
0.000000 0.000000 0.000000 0.000000 0.000000 -0.000000 -0.663458 90.563900 3.992330 88.804000 -3.731320 7.433820 15.735700 0.000005 -0.000001 79.585400 87.111100 -79.794900 8.984550 -0.406207 -0.000000 -2.085390 -1.026170 -0.437688 16.377300 -0.000001 -0.000001 4.719930 -2.859430 3.229380 6.456720 -0.000001 -0.000000 -2.703450 -3.476690 4.167910 12.994200 -0.242716 4.980390 -86.472600 -6.778270 -62.422800 5.348090 -0.000007 -0.000001 -18.944500 -46.439100 -24.413900 24.328600 0.000019 0.000005 7.274580 10.597700 -34.764200 22.291600 -0.000001 0.000005 18.557600 4.857980 10.205900 12.994500 -0.242716 -4.980390 91.513600 -3.888850 -68.713800 -5.348130 -0.000001 -0.000004 -38.313900 -53.322600 -46.217000 -24.328900 0.000322 -0.000009 -9.176260 -12.924200 -35.834400 -22.291500 -0.000108 -0.000004 23.273100 5.298080 0.132662 -2.192480 -6.469440 -0.000000 -174.550000 -10.323700 0.708615 39.081100 -0.000007 -0.000012 -0.188309 0.326392 29.982700 40.985400 -0.000006 -0.000013 0.084639 4.926260 -73.097400 11.754300 -0.000000 0.000003 -0.000031 -0.000374 -16.592100 -2.192510 6.469440 -0.000001 175.899000 16.456100 -178.527000 -39.081100 -0.002282 -0.040193 0.006675 -0.006023 29.242000 -40.985400 0.000008 0.000006 6.509650 12.136800 -73.923500 -11.754300 -0.000006 -0.000006 -0.002890 -0.039346 -18.173200
0.000000 0.000000 0.000000 0.000000 0.000000 -0.000000 -0.702742 90.481700 4.365040 88.854700 -3.309240 8.112750 15.735700 0.000005 -0.000001 79.952000 87.114900 -80.169500 8.984550 -0.406207 -0.000000 -2.086300 -0.987777 -0.452840 16.377300 -0.000001 -0.000001 5.637060 -2.934120 3.105370 6.456720 -0.000001 -0.000000 -2.032680 -3.330590 3.678280 12.994200 -0.242716 4.980390 -86.066800 -7.596480 -62.520700 5.348090 -0.000007 -0.000001 -24.500200 -48.894800 -33.475000 24.328600 0.000019 0.000005 6.598780 8.861560 -36.905900 22.291600 -0.000001 0.000005 19.815800 4.908440 9.210750 12.994500 -0.242716 -4.980390 91.852300 -4.705610 -68.485100 -5.348130 -0.000001 -0.000004 -45.489300 -54.901900 -56.250700 -24.328900 0.000322 -0.000009 -9.981760 -12.088700 -40.042600 -22.291500 -0.000108 -0.000004 26.052900 5.345280 -1.234560 -2.192480 -6.469440 -0.000000 -174.537000 -9.650670 1.556380 39.081100 -0.000007 -0.000012 -0.193112 0.333229 30.093300 40.985400 -0.000006 -0.000013 0.019553 4.792070 -73.414600 11.754300 -0.000000 0.000003 -0.000038 -0.000448 -16.595000 -2.192510 6.469440 -0.000001 175.657000 16.288500 -177.655000 -39.081100 -0.002282 -0.040193 0.007547 -0.007494 29.522900 -40.985400 0.000008 0.000006 6.406650 11.623300 -74.154300 -11.754300 -0.000006 -0.000006 -0.002719 -0.037383 -18.093300
0.000000 0.000000 0.000000 0.000000 0.000000 -0.000000 -0.699536 90.360100 4.653750 89.026600 -3.108910 8.736850 15.735700 0.000005 -0.000001 81.804300 87.305100 -82.073600 8.984550 -0.406207 -0.000000 -2.433120 -0.744133 -0.554373 16.377300 -0.000001 -0.000001 6.923050 -3.013100 3.103430 6.456720 -0.000001 -0.000000 -1.127100 -3.318520 3.059950 12.994200 -0.242716 4.980390 -85.487200 -8.684640 -62.403400 5.348090 -0.000007 -0.000001 -30.022100 -50.541300 -46.064300 24.328600 0.000019 0.000005 7.036210 7.423480 -43.692300 22.291600 -0.000001 0.000005 21.419600 5.007380 7.164380 12.994500 -0.242716 -4.980390 92.394600 -6.085780 -68.473100 -5.348130 -0.000001 -0.000004 -52.399100 -54.911500 -68.816800 -24.328900 0.000322 -0.000009 -9.561490 -9.095240 -46.819800 -22.291500 -0.000108 -0.000004 26.799000 5.408100 -3.201300 -2.192480 -6.469440 -0.000000 -174.556000 -9.623250 2.238090 39.081100 -0.000007 -0.000012 -0.198729 0.338742 30.399100 40.985400 -0.000006 -0.000013 0.079678 4.960060 -73.784300 11.754300 -0.000000 0.000003 -0.000040 -0.000471 -16.595900 -2.192510 6.469440 -0.000001 175.341000 15.965400 -177.246000 -39.081100 -0.002282 -0.040193 0.009040 -0.009806 30.334700 -40.985400 0.000008 0.000006 6.337960 11.171700 -74.390500 -11.754300 -0.000006 -0.000006 -0.002418 -0.033829 -17.948700
0.000000 0.000000 0.000000 0.000000 0.000000 -0.000000 -0.690011 90.245300 4.915320 89.138000 -3.088760 9.188590 15.735700 0.000005 -0.000001 85.262900 87.460900 -85.578000 8.984550 -0.406207 -0.000000 -2.706270 -0.390437 -0.639619 16.377300 -0.000001 -0.000001 8.069330 -3.145930 2.972620 6.456720 -0.000001 -0.000000 -0.052659 -3.426640 2.606350 12.994200 -0.242716 4.980390 -84.793700 -9.834550 -61.921600 5.348090 -0.000007 -0.000001 -34.206200 -51.286100 -59.766000 24.328600 0.000019 0.000005 7.606940 5.629820 -53.699400 22.291600 -0.000001 0.000005 23.883900 5.061440 5.985550 12.994500 -0.242716 -4.980390 92.948700 -7.399920 -68.201400 -5.348130 -0.000001 -0.000004 -57.664800 -53.247900 -82.155200 -24.328900 0.000322 -0.000009 -6.674540 -4.744170 -54.766400 -22.291500 -0.000108 -0.000004 28.625000 5.456620 -4.873140 -2.192480 -6.469440 -0.000000 -174.459000 -9.913780 2.757390 39.081100 -0.000007 -0.000012 -0.204624 0.344453 30.712900 40.985400 -0.000006 -0.000013 0.184929 5.298290 -74.146200 11.754300 -0.000000 0.000003 -0.000041 -0.000473 -16.596000 -2.192510 6.469440 -0.000001 175.069000 15.812100 -176.974000 -39.081100 -0.002282 -0.040193 0.010762 -0.012394 31.050900 -40.985400 0.000008 0.000006 6.413910 11.023100 -74.648100 -11.754300 -0.000006 -0.000006 -0.002372 -0.033280 -17.926400
